<?xml version="1.0" encoding="UTF-8" standalone="no"?>


<svg
   xmlns:svg="http://www.w3.org/2000/svg"
   xmlns="http://www.w3.org/2000/svg"
   version="1.0"
   width="420"
   height="420"
   id="svg2">
  <defs
     id="defs5" />
  <path
     d="M 214,10 173.375,67.21875 C 103.99583,85.61078 52.81251,148.86272 52.8125,224 c 0,31.15639 8.81295,60.28021 24.0625,85 L 18,309 l 44,63 27,0 27,0 -27,38 93,0 27,-38 27,38 95,0 -27,-38 27,0 27,0 44,-63 -48.875,0 c 15.24956,-24.71979 24.0625,-53.84361 24.0625,-85 0,-76.01664 -52.38256,-139.86605 -123,-157.40625 L 214,10 z m 1,106 c 59.61599,1e-5 108,48.384 108,108 2e-5,59.616 -48.384,108 -108,108 -3.29741,0 -6.55885,-0.14775 -9.78125,-0.4375 C 188.69197,327.23517 176.5,312.19457 176.5,294.3125 c 0,-21.6481 16.36486,-38.5 38.5,-38.5 9.68857,0 18.54155,3.58715 25.3125,9.5 13.87533,-8.52288 23.125,-23.84575 23.125,-41.3125 0,-26.73953 -21.69798,-48.43749 -48.4375,-48.4375 -26.73953,0 -48.4375,21.69796 -48.4375,48.4375 0,13.84374 5.83757,26.32417 15.15625,35.15625 -9.31907,8.82978 -15.15625,21.31234 -15.15625,35.15625 0,11.84221 4.24781,22.70729 11.3125,31.125 C 136.52795,310.28889 107,270.575 107,224 c -1e-5,-59.61601 48.384,-108 108,-108 z"
     id="path2386"
     style="fill:#000000;fill-opacity:1;stroke:none" />
</svg>
